<svg width="518" height="246" viewBox="0 0 518 246" fill="none" xmlns="http://www.w3.org/2000/svg">
<path d="M92.8585 79.5057C92.8585 111.69 72.8518 128.044 46.0601 128.044C41.0149 128.044 37.3615 127.87 32.8382 127V157.097C39.9711 159.359 45.7121 162.838 45.7121 162.838V169.623H0.827393V162.838C0.827393 162.838 6.56847 159.359 13.5273 157.097V52.54C13.5273 52.54 8.65613 50.4523 1.34931 49.0606V42.1017C9.52599 40.014 22.052 39.1442 32.1423 39.4921C32.1423 44.7113 31.9684 52.1921 31.0985 56.7153L31.4465 56.8893C35.7957 46.625 46.2341 38.2743 59.9778 38.2743C80.3326 38.2743 92.8585 54.8016 92.8585 79.5057ZM72.6778 82.8111C72.6778 64.5441 65.5449 51.6701 52.3231 51.6701C41.5368 51.6701 32.8382 63.8482 32.8382 78.9837V113.43C37.0136 116.214 42.4067 117.779 49.1916 117.779C63.8052 117.779 72.6778 105.775 72.6778 82.8111Z" fill="#1E2734"/>
<path d="M171.463 40.188L168.853 59.1509C164.852 57.4112 160.676 55.8455 155.457 55.8455C143.975 55.8455 138.408 69.0673 138.408 83.507V114.648C143.453 116.04 147.976 118.127 152.326 120.215V127H105.875V120.215C110.05 117.953 114.226 115.866 119.097 114.648V52.54C115.096 51.1482 110.398 49.5825 105.875 49.0606V42.1017C114.4 40.014 127.1 39.1442 137.712 39.4921C137.712 46.451 137.364 52.8879 136.32 59.6729H136.842C141.539 46.451 148.324 38.2743 159.459 38.2743C163.808 38.2743 168.157 38.9702 171.463 40.188Z" fill="#1E2734"/>
<path d="M214.254 13.0484C214.254 20.0073 208.861 25.2264 201.728 25.2264C194.421 25.2264 189.202 20.0073 189.202 13.0484C189.202 6.0895 194.421 0.696381 201.728 0.696381C208.861 0.696381 214.254 6.0895 214.254 13.0484ZM223.301 127H178.59V120.215C178.59 120.215 184.853 116.562 191.812 114.648V52.54C191.812 52.54 186.245 50.2784 178.59 49.0606V42.1017C178.59 42.1017 191.638 38.9702 211.123 39.4921V114.648C217.734 116.736 223.301 120.215 223.301 120.215V127Z" fill="#1E2734"/>
<path d="M389.337 127H347.583V120.563C347.583 120.563 352.455 117.258 358.022 114.822C358.022 114.822 358.891 99.8604 358.891 81.4193C358.891 62.6304 354.89 51.4962 342.886 51.4962C329.664 51.4962 321.835 65.24 321.835 78.6358V114.822C326.185 116.91 330.186 119.519 332.274 120.563V127H292.086V120.563C294.522 119.519 298.349 116.91 302.699 114.822V72.8947C302.699 61.9345 299.741 51.4962 287.041 51.4962C274.341 51.4962 266.338 65.24 266.338 78.6358V114.822C271.906 117.258 276.951 120.563 276.951 120.563V127H233.806V120.215C233.806 120.215 239.895 116.562 247.028 114.648V52.54C247.028 52.54 241.634 50.4523 233.806 49.0606V42.1017C233.806 42.1017 247.202 38.9702 265.99 39.4921C265.99 49.7565 264.773 56.7153 264.773 56.7153H265.121C269.47 46.277 280.604 38.2743 294.348 38.2743C310.005 38.2743 318.008 46.7989 320.444 57.0633H320.618C324.793 46.277 335.927 38.2743 350.193 38.2743C368.982 38.2743 378.376 50.8003 378.376 76.7221C378.376 98.2946 377.507 114.648 377.507 114.648C383.943 116.736 389.337 120.215 389.337 120.215V127Z" fill="#1E2734"/>
<path d="M478.08 109.603L480.689 116.562C480.689 116.562 469.729 124.912 455.811 129.088C451.288 121.955 450.766 113.082 450.766 113.082H450.592C445.721 121.955 434.935 128.74 424.149 128.74C409.361 128.74 399.793 118.475 399.793 104.732C399.793 89.77 418.06 75.5043 448.331 75.5043V66.2838C448.331 55.4975 443.112 48.5387 432.151 48.5387C425.018 48.5387 420.321 51.8441 420.321 51.8441C418.06 60.8907 414.232 66.9797 414.232 66.9797H406.23V43.4935C414.928 40.362 424.497 38.2743 436.327 38.2743C456.507 38.2743 467.642 46.277 467.642 63.5002V100.73C467.642 107.863 468.859 111.343 468.859 111.343C468.859 111.343 473.035 110.821 478.08 109.603ZM448.331 97.5987V85.2467C425.192 84.8988 419.451 92.9015 419.451 101.252C419.451 109.429 424.671 115.17 431.977 115.17C439.632 115.17 448.331 108.037 448.331 97.5987Z" fill="#1E2734"/>
<path d="M517.498 116.214C517.498 123.347 512.105 128.74 504.972 128.74C497.839 128.74 492.446 123.347 492.446 116.214C492.446 109.081 497.839 103.688 504.972 103.688C512.105 103.688 517.498 109.081 517.498 116.214Z" fill="#1E2734"/>
<path d="M88.7222 245.596V165.692H99.8765V178.563L98.1605 177.597C98.5895 175.452 99.805 173.414 101.807 171.484C103.809 169.482 106.24 167.873 109.1 166.658C112.032 165.37 115.035 164.727 118.109 164.727C123.186 164.727 127.691 165.978 131.623 168.481C135.556 170.983 138.666 174.415 140.954 178.777C143.242 183.139 144.386 188.144 144.386 193.792C144.386 199.37 143.242 204.375 140.954 208.808C138.738 213.17 135.663 216.637 131.731 219.211C127.798 221.714 123.365 222.965 118.431 222.965C115.142 222.965 111.96 222.322 108.886 221.035C105.811 219.676 103.201 217.96 101.056 215.887C98.9112 213.813 97.5884 211.668 97.0879 209.451L99.8765 207.95V245.596H88.7222ZM116.608 212.776C119.897 212.776 122.829 211.954 125.403 210.309C127.977 208.665 130.015 206.413 131.516 203.553C133.018 200.692 133.768 197.439 133.768 193.792C133.768 190.146 133.018 186.928 131.516 184.14C130.086 181.28 128.084 179.027 125.51 177.383C122.936 175.738 119.969 174.916 116.608 174.916C113.247 174.916 110.28 175.738 107.706 177.383C105.132 178.956 103.094 181.172 101.593 184.032C100.091 186.893 99.3402 190.146 99.3402 193.792C99.3402 197.439 100.091 200.692 101.593 203.553C103.094 206.413 105.132 208.665 107.706 210.309C110.28 211.954 113.247 212.776 116.608 212.776Z" fill="#1E2734"/>
<path d="M158.529 222V165.692H169.683V183.389L168.611 179.099C169.397 176.382 170.72 173.915 172.579 171.698C174.509 169.482 176.69 167.73 179.121 166.443C181.624 165.156 184.198 164.512 186.843 164.512C188.059 164.512 189.203 164.62 190.276 164.834C191.42 165.049 192.313 165.299 192.957 165.585L190.061 177.597C189.203 177.24 188.238 176.954 187.165 176.739C186.164 176.453 185.163 176.31 184.162 176.31C182.232 176.31 180.373 176.704 178.585 177.49C176.869 178.205 175.332 179.242 173.973 180.6C172.686 181.887 171.649 183.425 170.863 185.212C170.076 186.928 169.683 188.823 169.683 190.897V222H158.529Z" fill="#1E2734"/>
<path d="M226.834 223.073C221.328 223.073 216.394 221.821 212.033 219.319C207.743 216.745 204.346 213.277 201.844 208.915C199.341 204.482 198.09 199.441 198.09 193.792C198.09 188.144 199.341 183.139 201.844 178.777C204.346 174.344 207.743 170.876 212.033 168.374C216.394 165.799 221.328 164.512 226.834 164.512C232.268 164.512 237.13 165.799 241.42 168.374C245.782 170.876 249.214 174.344 251.716 178.777C254.219 183.139 255.47 188.144 255.47 193.792C255.47 199.441 254.219 204.482 251.716 208.915C249.214 213.277 245.782 216.745 241.42 219.319C237.13 221.821 232.268 223.073 226.834 223.073ZM226.834 212.991C230.194 212.991 233.197 212.168 235.843 210.524C238.489 208.808 240.562 206.52 242.064 203.66C243.565 200.728 244.28 197.439 244.209 193.792C244.28 190.074 243.565 186.785 242.064 183.925C240.562 180.994 238.489 178.706 235.843 177.061C233.197 175.416 230.194 174.594 226.834 174.594C223.473 174.594 220.434 175.452 217.717 177.168C215.072 178.813 212.998 181.101 211.497 184.032C209.995 186.893 209.28 190.146 209.352 193.792C209.28 197.439 209.995 200.728 211.497 203.66C212.998 206.52 215.072 208.808 217.717 210.524C220.434 212.168 223.473 212.991 226.834 212.991Z" fill="#1E2734"/>
</svg>
