<svg width="530" height="292" viewBox="0 0 530 292" fill="none" xmlns="http://www.w3.org/2000/svg">
<path d="M95.8585 122.506C95.8585 154.69 75.8518 171.044 49.0601 171.044C44.0149 171.044 40.3615 170.87 35.8382 170V200.097C42.9711 202.359 48.7121 205.838 48.7121 205.838V212.623H3.82738V205.838C3.82738 205.838 9.56846 202.359 16.5273 200.097V95.54C16.5273 95.54 11.6561 93.4524 4.3493 92.0606V85.1017C12.526 83.014 25.052 82.1442 35.1423 82.4921C35.1423 87.7113 34.9684 95.1921 34.0985 99.7153L34.4464 99.8893C38.7957 89.625 49.2341 81.2743 62.9778 81.2743C83.3325 81.2743 95.8585 97.8017 95.8585 122.506ZM75.6778 125.811C75.6778 107.544 68.5449 94.6702 55.3231 94.6702C44.5368 94.6702 35.8382 106.848 35.8382 121.984V156.43C40.0135 159.214 45.4067 160.779 52.1916 160.779C66.8052 160.779 75.6778 148.775 75.6778 125.811ZM174.463 83.188L171.853 102.151C167.852 100.411 163.676 98.8455 158.457 98.8455C146.975 98.8455 141.408 112.067 141.408 126.507V157.648C146.453 159.04 150.976 161.127 155.326 163.215V170H108.875V163.215C113.05 160.953 117.226 158.866 122.097 157.648V95.54C118.096 94.1482 113.398 92.5825 108.875 92.0606V85.1017C117.4 83.014 130.1 82.1442 140.712 82.4921C140.712 89.451 140.364 95.888 139.32 102.673H139.842C144.539 89.451 151.324 81.2743 162.459 81.2743C166.808 81.2743 171.157 81.9702 174.463 83.188ZM217.254 56.0484C217.254 63.0073 211.861 68.2264 204.728 68.2264C197.421 68.2264 192.202 63.0073 192.202 56.0484C192.202 49.0895 197.421 43.6964 204.728 43.6964C211.861 43.6964 217.254 49.0895 217.254 56.0484ZM226.301 170H181.59V163.215C181.59 163.215 187.853 159.562 194.812 157.648V95.54C194.812 95.54 189.245 93.2784 181.59 92.0606V85.1017C181.59 85.1017 194.638 81.9702 214.123 82.4921V157.648C220.734 159.736 226.301 163.215 226.301 163.215V170ZM392.337 170H350.583V163.563C350.583 163.563 355.455 160.258 361.022 157.822C361.022 157.822 361.891 142.86 361.891 124.419C361.891 105.63 357.89 94.4962 345.886 94.4962C332.664 94.4962 324.835 108.24 324.835 121.636V157.822C329.185 159.91 333.186 162.519 335.274 163.563V170H295.086V163.563C297.522 162.519 301.349 159.91 305.699 157.822V115.895C305.699 104.935 302.741 94.4962 290.041 94.4962C277.341 94.4962 269.338 108.24 269.338 121.636V157.822C274.906 160.258 279.951 163.563 279.951 163.563V170H236.806V163.215C236.806 163.215 242.895 159.562 250.028 157.648V95.54C250.028 95.54 244.634 93.4524 236.806 92.0606V85.1017C236.806 85.1017 250.202 81.9702 268.99 82.4921C268.99 92.7565 267.773 99.7153 267.773 99.7153H268.121C272.47 89.277 283.604 81.2743 297.348 81.2743C313.005 81.2743 321.008 89.7989 323.444 100.063H323.618C327.793 89.277 338.927 81.2743 353.193 81.2743C371.982 81.2743 381.376 93.8003 381.376 119.722C381.376 141.295 380.506 157.648 380.506 157.648C386.943 159.736 392.337 163.215 392.337 163.215V170ZM481.08 152.603L483.689 159.562C483.689 159.562 472.729 167.912 458.811 172.088C454.288 164.955 453.766 156.082 453.766 156.082H453.592C448.721 164.955 437.935 171.74 427.149 171.74C412.361 171.74 402.793 161.475 402.793 147.732C402.793 132.77 421.06 118.504 451.331 118.504V109.284C451.331 98.4975 446.112 91.5387 435.151 91.5387C428.018 91.5387 423.321 94.8441 423.321 94.8441C421.06 103.891 417.232 109.98 417.232 109.98H409.229V86.4935C417.928 83.362 427.497 81.2743 439.327 81.2743C459.507 81.2743 470.642 89.277 470.642 106.5V143.73C470.642 150.863 471.859 154.343 471.859 154.343C471.859 154.343 476.035 153.821 481.08 152.603ZM451.331 140.599V128.247C428.192 127.899 422.451 135.902 422.451 144.252C422.451 152.429 427.671 158.17 434.977 158.17C442.632 158.17 451.331 151.037 451.331 140.599ZM520.498 159.214C520.498 166.347 515.105 171.74 507.972 171.74C500.839 171.74 495.446 166.347 495.446 159.214C495.446 152.081 500.839 146.688 507.972 146.688C515.105 146.688 520.498 152.081 520.498 159.214Z" fill="#1E2734"/>
<path d="M91.7222 288.596V208.478H104.7L104.914 221.348L102.662 220.383C103.091 218.166 104.307 216.093 106.309 214.162C108.311 212.16 110.742 210.551 113.602 209.336C116.533 208.12 119.572 207.512 122.718 207.512C127.723 207.512 132.157 208.764 136.018 211.266C139.95 213.769 143.025 217.201 145.241 221.563C147.529 225.924 148.673 230.965 148.673 236.685C148.673 242.334 147.529 247.375 145.241 251.808C143.025 256.17 139.95 259.637 136.018 262.211C132.157 264.714 127.795 265.965 122.933 265.965C119.644 265.965 116.462 265.322 113.387 264.035C110.384 262.748 107.81 261.067 105.665 258.994C103.592 256.92 102.304 254.739 101.804 252.451L105.022 250.95V288.596H91.7222ZM120.251 254.275C123.255 254.275 125.936 253.524 128.295 252.022C130.655 250.521 132.478 248.447 133.765 245.802C135.124 243.156 135.803 240.117 135.803 236.685C135.803 233.253 135.16 230.25 133.873 227.676C132.586 225.03 130.762 222.957 128.403 221.455C126.043 219.954 123.326 219.203 120.251 219.203C117.105 219.203 114.353 219.954 111.993 221.455C109.705 222.885 107.882 224.923 106.523 227.569C105.165 230.214 104.485 233.253 104.485 236.685C104.485 240.117 105.165 243.156 106.523 245.802C107.882 248.447 109.705 250.521 111.993 252.022C114.353 253.524 117.105 254.275 120.251 254.275ZM162.576 265V208.478H175.554L175.768 226.496L173.945 222.421C174.731 219.561 176.09 216.986 178.021 214.698C179.951 212.41 182.168 210.623 184.67 209.336C187.244 207.977 189.926 207.298 192.714 207.298C193.93 207.298 195.074 207.405 196.146 207.62C197.29 207.834 198.22 208.084 198.935 208.37L195.395 222.85C194.609 222.421 193.644 222.063 192.5 221.777C191.356 221.491 190.212 221.348 189.068 221.348C187.28 221.348 185.564 221.706 183.919 222.421C182.346 223.064 180.952 223.994 179.737 225.209C178.521 226.425 177.556 227.855 176.841 229.499C176.197 231.072 175.875 232.86 175.875 234.862V265H162.576ZM233.303 266.073C227.654 266.073 222.613 264.821 218.18 262.319C213.747 259.745 210.243 256.241 207.669 251.808C205.095 247.375 203.808 242.334 203.808 236.685C203.808 231.037 205.095 225.996 207.669 221.563C210.243 217.129 213.747 213.662 218.18 211.159C222.613 208.585 227.654 207.298 233.303 207.298C238.88 207.298 243.885 208.585 248.318 211.159C252.751 213.662 256.219 217.129 258.722 221.563C261.296 225.996 262.583 231.037 262.583 236.685C262.583 242.334 261.296 247.375 258.722 251.808C256.219 256.241 252.751 259.745 248.318 262.319C243.885 264.821 238.88 266.073 233.303 266.073ZM233.303 254.382C236.377 254.382 239.094 253.595 241.454 252.022C243.885 250.449 245.78 248.34 247.138 245.694C248.568 243.049 249.248 240.046 249.176 236.685C249.248 233.253 248.568 230.214 247.138 227.569C245.78 224.923 243.885 222.85 241.454 221.348C239.094 219.775 236.377 218.989 233.303 218.989C230.228 218.989 227.44 219.775 224.937 221.348C222.506 222.85 220.611 224.959 219.253 227.676C217.894 230.322 217.215 233.325 217.215 236.685C217.215 240.046 217.894 243.049 219.253 245.694C220.611 248.34 222.506 250.449 224.937 252.022C227.44 253.595 230.228 254.382 233.303 254.382Z" fill="#1E2734"/>
</svg>
